<svg id="Layer_1" enable-background="new 0 0 128 128" height="512" viewBox="0 0 128 128" width="512" xmlns="http://www.w3.org/2000/svg"><path d="m109.46 109.455c0-4.506-1.449-8.576-3.786-11.545-1.213-2.686-3.003-4.943-5.218-6.529-1.26-5.434-3.192-9.282-5.283-12.184-.339-.645-.686-1.263-1.042-1.84-.026-.038-.043-.08-.073-.113-2.476-3.972-5.289-6.419-7.489-8.326-.403-.349-.794-.688-1.164-1.021-.162-1.619.366-3.987 2.829-7.313 4.377-5.911 8.213-9.213 7.981-17.572-.163-5.867-2.345-11.766-5.834-16.817-5.234-9.772-15.145-17.31-25.513-18.026-.45-.031-1.577-.659-2.571-1.214-1.693-.945-3.801-2.12-5.85-2.438-1.253-.193-2.483.386-3.131 1.481-.38.643-.51 1.375-.396 2.074-2.297-.604-4.557-.806-5.315 1.138-.269.689-.256 1.388.039 2.021.067.145.147.281.24.412-10.594 5.132-17.102 15.811-17.102 28.277 0 5.013 2.72 11.197 8.084 18.382 1.643 2.2 2.645 4.818 2.895 7.571.101 1.1-.215 2.181-.889 3.046-5.192 6.665-9.106 14.689-10.78 22.082-4.669 3.029-7.552 8.904-7.552 15.453 0 3.665.903 7.15 2.618 10.123-.706 1.135-1.055 2.428-1.015 3.777.057 1.941 1.512 3.566 3.39 3.947v2.218c0 .553.448 1 1 1s1-.447 1-1v-.708c.439.3.954.486 1.506.544v.165c0 .553.448 1 1 1s1-.447 1-1v-.132h1.506v.132c0 .553.448 1 1 1s1-.447 1-1v-.132h9.201l.343.618c.183.329.523.515.875.515.164 0 .331-.04.484-.126.37-.205.554-.611.501-1.006h.942l.343.618c.183.329.523.515.875.515.164 0 .331-.04.484-.126.37-.205.554-.611.501-1.006h.942l.343.618c.183.329.523.515.875.515.164 0 .331-.04.484-.126.37-.205.554-.611.501-1.006h21.195c-.053.396.131.801.501 1.006.154.086.32.126.484.126.352 0 .692-.186.875-.515l.343-.618h.942c-.053.396.131.801.501 1.006.154.086.32.126.484.126.352 0 .692-.186.875-.515l.343-.618h.942c-.053.396.131.801.501 1.006.154.086.32.126.484.126.352 0 .692-.186.875-.515l.343-.618h9.747v.132c0 .553.448 1 1 1s1-.447 1-1v-.132h1.506v.132c0 .553.448 1 1 1s1-.447 1-1v-.132h1.506v.132c0 .553.448 1 1 1s1-.447 1-1v-.132h2.7c1.784 0 3.242-1.444 3.245-3.228.002-1.588-.634-3.026-1.665-4.076 1.564-2.71 2.494-6.03 2.494-9.629z" fill="#e6e7e8"/><path d="m102.46 102.455c0-7.033-3.517-13.019-8.459-15.381-2.69-15.464-10.467-19.55-14.322-23.428l-.011-.011c-.729-.734-3.21-3.601 1.566-10.051 4.377-5.911 8.213-9.213 7.981-17.572-.411-14.804-13.643-29.826-28.417-30.845-1.559-.108-5.214-3.151-8.505-3.662-1.864-.289-3.127 1.852-1.977 3.347.245.318.463.602.558.848-2.652-.834-5.673-1.83-6.338-.127-.413 1.057.262 1.931 1.305 2.285-11.138 4.648-18.059 15.24-18.059 28.063 0 5.778 3.943 12.502 7.885 17.783 1.799 2.409 2.828 5.213 3.09 8.08.122 1.343-.268 2.687-1.096 3.751-4.808 6.173-8.97 14.154-10.682 22.092-4.397 2.66-7.439 8.291-7.439 14.829 0 3.838 1.055 7.361 2.808 10.161-.787 1.023-1.246 2.31-1.205 3.71.051 1.718 1.515 3.062 3.233 3.062h74.014c1.784 0 3.242-1.444 3.245-3.228.002-1.588-.634-3.026-1.665-4.076 1.56-2.711 2.49-6.031 2.49-9.63z" fill="#fff"/><path d="m105.46 102.455c0-7.033-3.517-13.019-8.459-15.381-2.69-15.464-10.467-19.55-14.322-23.428l-.011-.011c-.729-.734-3.21-3.601 1.566-10.051 4.377-5.911 8.213-9.213 7.981-17.572-.411-14.804-13.643-29.826-28.417-30.845-1.559-.108-5.214-3.151-8.505-3.662-1.864-.289-3.127 1.852-1.977 3.347.245.318.463.602.558.848-2.652-.834-5.673-1.83-6.338-.127-.413 1.057.262 1.931 1.305 2.285-11.138 4.648-18.059 15.24-18.059 28.063 0 5.778 3.943 12.502 7.885 17.783 1.799 2.409 2.828 5.213 3.09 8.08.122 1.343-.268 2.687-1.096 3.751-4.808 6.173-8.97 14.154-10.682 22.092-4.397 2.66-7.439 8.291-7.439 14.829 0 3.838 1.055 7.361 2.808 10.161-.787 1.023-1.246 2.31-1.205 3.71.051 1.718 1.515 3.062 3.233 3.062h74.014c1.784 0 3.242-1.444 3.245-3.228.002-1.588-.634-3.026-1.665-4.076 1.56-2.711 2.49-6.031 2.49-9.63z" fill="#fa759e"/><path d="m59.863 17.804c-.844.517-1.929.528-2.771.008-10.714-6.617-22.879 9.097-22.879 18.21 0 9.509 10.865 17.218 24.267 17.218s24.267-7.709 24.267-17.218c0-9.088-12.784-24.408-22.884-18.218z" fill="#ffd7e5"/><circle cx="48.105" cy="29.978" fill="#fff" r="2.54"/><circle cx="68.854" cy="29.978" fill="#fff" r="2.54"/><g fill="#3a2c60"><path d="m103.46 102.454c0-7.063-3.344-13.296-8.562-16.05-1.044-5.674-2.795-9.851-4.767-13.048-.026-.038-.044-.08-.074-.114-2.476-3.972-5.288-6.419-7.489-8.325-.801-.694-1.558-1.351-2.192-1.986-1.78-1.794-1.191-4.902 1.66-8.753.683-.923 1.354-1.781 1.997-2.605 3.568-4.573 6.386-8.186 6.181-15.589-.433-15.621-14.421-30.785-29.347-31.815-.45-.03-1.578-.659-2.572-1.215-1.693-.944-3.8-2.119-5.848-2.438-1.253-.193-2.483.386-3.131 1.481-.38.643-.51 1.375-.396 2.074-2.297-.604-4.557-.807-5.315 1.138-.269.689-.256 1.388.039 2.021.067.145.147.281.24.412-10.594 5.133-17.102 15.811-17.102 28.278 0 5.013 2.72 11.197 8.084 18.382 1.643 2.2 2.645 4.819 2.895 7.572.101 1.099-.215 2.18-.889 3.045-5.192 6.665-9.106 14.689-10.78 22.082-4.669 3.031-7.552 8.905-7.552 15.453 0 3.665.903 7.15 2.618 10.124-.706 1.134-1.055 2.426-1.015 3.776.057 1.941 1.512 3.566 3.39 3.947v2.218c0 .553.448 1 1 1s1-.447 1-1v-2.132h1.506v2.132c0 .553.448 1 1 1s1-.447 1-1v-2.132h1.506v2.132c0 .553.448 1 1 1s1-.447 1-1v-2.132h4.133c.096.031.192.066.289.088.072.017.145.024.219.024h.018l3.46-.062 1.426 2.567c.183.329.523.515.875.515.164 0 .331-.04.484-.126.483-.268.657-.877.389-1.359l-.909-1.637.53-.01h.323l1.453 2.617c.183.329.523.515.875.515.164 0 .331-.04.484-.126.483-.268.657-.877.389-1.359l-.914-1.646h.858l1.453 2.617c.183.329.523.515.875.515.164 0 .331-.04.484-.126.483-.268.657-.877.389-1.359l-.914-1.646h23.249l-.914 1.646c-.269.482-.094 1.092.389 1.359.154.086.32.126.484.126.352 0 .692-.186.875-.515l1.453-2.617h.858l-.914 1.646c-.269.482-.094 1.092.389 1.359.154.086.32.126.484.126.352 0 .692-.186.875-.515l1.453-2.617h.633l.223.004-.912 1.643c-.269.482-.094 1.092.389 1.359.154.086.32.126.484.126.352 0 .692-.186.875-.515l1.429-2.573 3.779.068h.018c.073 0 .147-.008.219-.024.097-.022.193-.057.289-.088h4.356v2.132c0 .553.448 1 1 1s1-.447 1-1v-2.132h1.506v2.132c0 .553.448 1 1 1s1-.447 1-1v-2.132h1.506v2.132c0 .553.448 1 1 1s1-.447 1-1v-2.162c2.196-.156 3.942-1.968 3.945-4.195.002-1.543-.508-3.013-1.451-4.21 1.492-2.839 2.277-6.107 2.277-9.498zm-65.01-36.306c.987-1.267 1.45-2.849 1.303-4.455-.285-3.121-1.42-6.091-3.285-8.588-5.028-6.734-7.687-12.677-7.687-17.185 0-12.251 6.684-22.649 17.444-27.14.384-.16.628-.541.614-.957s-.284-.779-.678-.913c-.343-.116-.607-.312-.706-.523-.039-.083-.079-.219.011-.45.085-.219.375-.305.785-.305 1.075 0 2.972.597 4.14.965l.183.058c.365.115.767.01 1.029-.271s.342-.687.203-1.044c-.148-.383-.416-.73-.699-1.098-.418-.544-.161-1.075-.072-1.226.088-.149.433-.625 1.104-.523 1.694.263 3.627 1.341 5.18 2.208 1.404.783 2.513 1.401 3.409 1.464 13.978.963 27.079 15.202 27.486 29.873.186 6.686-2.308 9.881-5.759 14.304-.653.837-1.333 1.709-2.027 2.646-4.736 6.396-2.955 9.857-1.459 11.362.674.679 1.458 1.358 2.289 2.078 2.201 1.908 4.843 4.211 7.147 7.923 4.613 14.641 2.208 35.229-1.685 42.014-.604 1.053-1.234 1.739-1.813 2.022h-2.757l.581-1.047c.269-.482.094-1.092-.389-1.359-.483-.27-1.091-.094-1.359.389l-1.12 2.018h-.858l.581-1.047c.269-.482.094-1.092-.389-1.359-.483-.27-1.091-.094-1.359.389l-1.102 1.985-.85-.015.555-.999c.269-.482.094-1.092-.389-1.359-.483-.27-1.092-.094-1.359.389l-1.072 1.929-.259-.005c-.533-.025-.908-.335-1.128-.59-.484-.559-.732-1.421-.674-2.327 1.497-4.106 2.613-7.822 3.41-11.358.122-.538-.217-1.073-.755-1.195-.541-.118-1.074.217-1.196.756-.787 3.487-1.894 7.164-3.384 11.238-.03.081-.048.164-.057.25-.115 1.22.153 2.383.716 3.319h-18.59c.563-.936.831-2.099.715-3.32-.008-.085-.027-.168-.057-.249-4.413-12.067-5.727-21.716-4.017-29.497.119-.54-.223-1.073-.762-1.191-.535-.115-1.073.223-1.191.762-1.789 8.137-.465 18.109 4.045 30.486.059.905-.189 1.769-.674 2.327-.221.255-.595.564-1.098.589l-.609.011-1.074-1.935c-.268-.482-.875-.658-1.359-.389-.483.268-.657.877-.389 1.359l.558 1.005-.85.015-1.105-1.991c-.268-.482-.876-.658-1.359-.389-.483.268-.657.877-.389 1.359l.581 1.047h-.858l-1.12-2.018c-.268-.482-.876-.658-1.359-.389-.483.268-.657.877-.389 1.359l.581 1.047h-2.433c-.568-.281-1.188-.959-1.785-2-3.965-6.912-6.434-27.866-1.719-42.65.033-.103.035-.207.034-.31 1.429-2.531 3.044-4.989 4.828-7.279zm-6.904 49.708c-.552 0-1 .447-1 1v1.532h-1.506v-1.532c0-.553-.448-1-1-1s-1 .447-1 1v1.532h-1.506v-1.532c0-.553-.448-1-1-1s-1 .447-1 1v1.37c-.792-.317-1.365-1.062-1.391-1.929-.033-1.117.312-2.179.998-3.07.255-.331.277-.786.055-1.14-1.737-2.775-2.655-6.106-2.655-9.632 0-5.932 2.73-11.416 6.956-13.973.235-.143.402-.376.46-.645.439-2.035 1.075-4.125 1.852-6.223-1.893 13.318-.013 29.183 3.765 35.768.212.37.43.699.653 1.005h-1.68v-1.532c-.001-.552-.449-.999-1.001-.999zm67.144 2.502v-1.502c0-.553-.448-1-1-1s-1 .447-1 1v1.532h-1.506v-1.532c0-.553-.448-1-1-1s-1 .447-1 1v1.532h-1.506v-1.532c0-.553-.448-1-1-1s-1 .447-1 1v1.532h-1.89c.228-.312.452-.649.668-1.027 3.508-6.115 5.402-19.999 4.043-32.658.187.813.362 1.653.517 2.542.056.319.262.592.554.731 4.719 2.256 7.89 8.074 7.89 14.479 0 3.296-.815 6.453-2.357 9.131-.224.389-.161.88.153 1.199.891.908 1.38 2.106 1.378 3.375-.001 1.126-.851 2.05-1.944 2.198z"/><path d="m53.534 40.328c-.056.425.009.715.232.938l1.874 1.874c.563.563 1.25.919 1.971 1.095v.936c0 1.311-1.743 2.418-3.805 2.418-2.063 0-3.806-1.107-3.806-2.418 0-.553-.448-1-1-1s-1 .447-1 1c0 2.478 2.55 4.418 5.806 4.418 2.021 0 3.769-.749 4.805-1.909 1.036 1.16 2.784 1.909 4.805 1.909 3.255 0 5.806-1.94 5.806-4.418 0-.553-.448-1-1-1s-1 .447-1 1c0 1.311-1.743 2.418-3.806 2.418s-3.805-1.107-3.805-2.418v-.936c.721-.177 1.408-.532 1.971-1.095l1.874-1.874c.224-.223.288-.513.232-.938-.212-1.614-1.673-2.773-3.301-2.773h-3.553c-1.627 0-3.089 1.159-3.3 2.773z"/><path d="m49.121 35.594c6.042-4.61 6.962-8.137 4.394-10.57-2.978-2.82-11.081 1.991-16.499 5.796-1.695 1.19-2.797 3.099-2.804 5.17v.033c0 .048 0 .095.001.143.047 4.094 4.731 6.433 8.145 4.172 2.367-1.567 4.789-3.238 6.763-4.744zm-1.016-8.156c1.403 0 2.539 1.137 2.539 2.54s-1.137 2.54-2.539 2.54-2.539-1.137-2.539-2.54 1.136-2.54 2.539-2.54z"/><path d="m48.108 31.393c.78 0 1.413-.632 1.413-1.413s-.632-1.413-1.413-1.413c-.78 0-1.413.632-1.413 1.413s.632 1.413 1.413 1.413z"/><path d="m67.838 35.594c1.974 1.506 4.396 3.177 6.763 4.744 3.414 2.26 8.098-.078 8.145-4.172.001-.047.001-.095.001-.143 0-.011 0-.022 0-.033-.007-2.071-1.109-3.98-2.804-5.17-5.418-3.804-13.521-8.616-16.499-5.796-2.568 2.432-1.648 5.959 4.394 10.57zm1.016-8.156c1.403 0 2.539 1.137 2.539 2.54s-1.137 2.54-2.539 2.54-2.539-1.137-2.539-2.54 1.137-2.54 2.539-2.54z"/><circle cx="68.851" cy="29.98" r="1.413"/><path d="m75.397 92.437c-.563.01-1.011.423-1.025.975-.054 2.152-.287 4.453-.691 6.839-.092.544.274 1.061.819 1.153.057.009.113.014.168.014.479 0 .902-.345.985-.833.42-2.479.662-4.876.719-7.122.013-.554-.423-1.012-.975-1.026z"/><path d="m75.297 90.828c.023 0 .046-.001.07-.002.551-.038.967-.516.929-1.067-.116-1.677-.348-3.314-.689-4.867-.119-.539-.656-.881-1.191-.762-.539.118-.88.651-.762 1.191.32 1.457.538 2.996.647 4.576.036.528.475.931.996.931z"/></g></svg>