<svg height="448pt" viewBox="0 0 448 448" width="448pt" xmlns="http://www.w3.org/2000/svg"><path d="m224 256c-8.835938 0-16 7.164062-16 16v48h32v-48c0-8.835938-7.164062-16-16-16zm0 0"/><path d="m152 320h40v-48c0-17.671875 14.328125-32 32-32s32 14.328125 32 32v48h40v-112h-144zm0 0"/><path d="m136.960938 192h174.078124l-87.039062-62.167969zm0 0"/><path d="m224 0c-123.710938 0-224 100.289062-224 224s100.289062 224 224 224 224-100.289062 224-224c-.140625-123.652344-100.347656-223.859375-224-224zm119.617188 202.449219c-1.066407 3.308593-4.140626 5.550781-7.617188 5.550781h-24v120c0 4.417969-3.582031 8-8 8h-160c-4.417969 0-8-3.582031-8-8v-120h-24c-3.472656-.003906-6.546875-2.25-7.609375-5.558594-1.058594-3.308594.136719-6.921875 2.960937-8.945312l112-80c2.78125-1.984375 6.515626-1.984375 9.296876 0l112 80c2.828124 2.023437 4.03125 5.640625 2.96875 8.953125zm0 0"/></svg>